<svg width="60" height="60" viewBox="0 0 60 60" fill="none" xmlns="http://www.w3.org/2000/svg">
<path d="M35.325 28.3504C36.3 24.2504 32.7249 20.6753 28.6249 21.6503C26.6999 22.1253 25.125 23.7004 24.65 25.6254C23.675 29.7254 27.2499 33.3004 31.3499 32.3254C33.2999 31.8504 34.875 30.2754 35.325 28.3504Z" stroke="white" stroke-width="2" stroke-linecap="round" stroke-linejoin="round"/>
<path d="M45.025 42.975C49.3 38.975 51.975 33.2999 51.975 26.9749C51.975 14.8249 42.125 5 30 5C17.875 5 8.02502 14.8499 8.02502 26.9749C8.02502 33.3249 10.725 39.0499 15.05 43.0499" stroke="white" stroke-width="2" stroke-linecap="round" stroke-linejoin="round"/>
<path d="M20 36.375C17.7 33.925 16.275 30.625 16.275 26.975C16.275 19.4 22.425 13.25 30 13.25C37.575 13.25 43.7251 19.4 43.7251 26.975C43.7251 30.625 42.3 33.9 40 36.375" stroke="white" stroke-width="2" stroke-linecap="round" stroke-linejoin="round"/>
<path d="M25.7501 41.6502L22.1501 46.1253C19.3001 49.7003 21.8251 54.9752 26.4001 54.9752H33.575C38.15 54.9752 40.7001 49.6753 37.8251 46.1253L34.2251 41.6502C32.0751 38.9252 27.9251 38.9252 25.7501 41.6502Z" stroke="white" stroke-width="2" stroke-linecap="round" stroke-linejoin="round"/>
</svg>
