<svg width="60" height="60" viewBox="0 0 60 60" fill="none" xmlns="http://www.w3.org/2000/svg">
<path d="M54.925 45.825C54.925 46.725 54.725 47.65 54.3 48.55C53.875 49.45 53.325 50.3 52.6 51.1C51.375 52.45 50.025 53.425 48.5 54.05C47 54.675 45.375 55 43.625 55C41.075 55 38.35 54.4 35.475 53.175C32.6 51.95 29.725 50.3 26.875 48.225C24 46.125 21.275 43.8 18.675 41.225C16.1 38.625 13.775 35.9 11.7 33.05C9.65 30.2 8 27.35 6.8 24.525C5.6 21.675 5 18.95 5 16.35C5 14.65 5.3 13.025 5.9 11.525C6.5 10 7.45 8.6 8.775 7.35C10.375 5.775 12.125 5 13.975 5C14.675 5 15.375 5.15 16 5.45C16.65 5.75 17.225 6.2 17.675 6.85L23.475 15.025C23.925 15.65 24.25 16.225 24.475 16.775C24.7 17.3 24.825 17.825 24.825 18.3C24.825 18.9 24.65 19.5 24.3 20.075C23.975 20.65 23.5 21.25 22.9 21.85L21 23.825C20.725 24.1 20.6 24.425 20.6 24.825C20.6 25.025 20.625 25.2 20.675 25.4C20.75 25.6 20.825 25.75 20.875 25.9C21.325 26.725 22.1 27.8 23.2 29.1C24.325 30.4 25.525 31.725 26.825 33.05C28.175 34.375 29.475 35.6 30.8 36.725C32.1 37.825 33.175 38.575 34.025 39.025C34.15 39.075 34.3 39.15 34.475 39.225C34.675 39.3 34.875 39.325 35.1 39.325C35.525 39.325 35.85 39.175 36.125 38.9L38.025 37.025C38.65 36.4 39.25 35.925 39.825 35.625C40.4 35.275 40.975 35.1 41.6 35.1C42.075 35.1 42.575 35.2 43.125 35.425C43.675 35.65 44.25 35.975 44.875 36.4L53.15 42.275C53.8 42.725 54.25 43.25 54.525 43.875C54.775 44.5 54.925 45.125 54.925 45.825Z" stroke="white" stroke-width="2" stroke-miterlimit="10"/>
<path d="M46.25 22.5C46.25 21 45.075 18.7 43.325 16.825C41.725 15.1 39.6 13.75 37.5 13.75" stroke="white" stroke-width="2" stroke-linecap="round" stroke-linejoin="round"/>
<path d="M55 22.5C55 12.825 47.175 5 37.5 5" stroke="white" stroke-width="2" stroke-linecap="round" stroke-linejoin="round"/>
</svg>
