<svg width="246" height="158" viewBox="0 0 246 158" fill="none" xmlns="http://www.w3.org/2000/svg">
<path fill-rule="evenodd" clip-rule="evenodd" d="M246 158L246 153.176L241.208 153.176L241.208 158L246 158Z" fill="#D8D8D8"/>
<path fill-rule="evenodd" clip-rule="evenodd" d="M223.958 158L223.958 153.176L219.166 153.176L219.166 158L223.958 158Z" fill="#D8D8D8"/>
<path fill-rule="evenodd" clip-rule="evenodd" d="M201.915 158L201.915 153.176L197.123 153.176L197.123 158L201.915 158Z" fill="#D8D8D8"/>
<path fill-rule="evenodd" clip-rule="evenodd" d="M179.873 158L179.873 153.176L175.081 153.176L175.081 158L179.873 158Z" fill="#D8D8D8"/>
<path fill-rule="evenodd" clip-rule="evenodd" d="M246 135.808L246 130.983L241.208 130.983L241.208 135.808L246 135.808Z" fill="#D8D8D8"/>
<path fill-rule="evenodd" clip-rule="evenodd" d="M223.958 135.808L223.958 130.983L219.166 130.983L219.166 135.808L223.958 135.808Z" fill="#D8D8D8"/>
<path fill-rule="evenodd" clip-rule="evenodd" d="M201.915 135.808L201.915 130.983L197.123 130.983L197.123 135.808L201.915 135.808Z" fill="#D8D8D8"/>
<path fill-rule="evenodd" clip-rule="evenodd" d="M179.873 135.808L179.873 130.983L175.081 130.983L175.081 135.808L179.873 135.808Z" fill="#D8D8D8"/>
<path fill-rule="evenodd" clip-rule="evenodd" d="M246 114.098L246 109.273L241.208 109.273L241.208 114.098L246 114.098Z" fill="#D8D8D8"/>
<path fill-rule="evenodd" clip-rule="evenodd" d="M223.958 114.098L223.958 109.273L219.166 109.273L219.166 114.098L223.958 114.098Z" fill="#D8D8D8"/>
<path fill-rule="evenodd" clip-rule="evenodd" d="M201.915 114.098L201.915 109.273L197.123 109.273L197.123 114.098L201.915 114.098Z" fill="#D8D8D8"/>
<path fill-rule="evenodd" clip-rule="evenodd" d="M179.873 114.098L179.873 109.273L175.081 109.273L175.081 114.098L179.873 114.098Z" fill="#D8D8D8"/>
<path fill-rule="evenodd" clip-rule="evenodd" d="M246 91.9055L246 87.0811L241.208 87.0811L241.208 91.9055L246 91.9055Z" fill="#D8D8D8"/>
<path fill-rule="evenodd" clip-rule="evenodd" d="M223.958 91.9055L223.958 87.0811L219.166 87.0811L219.166 91.9055L223.958 91.9055Z" fill="#D8D8D8"/>
<path fill-rule="evenodd" clip-rule="evenodd" d="M201.915 91.9055L201.915 87.0811L197.123 87.0811L197.123 91.9055L201.915 91.9055Z" fill="#D8D8D8"/>
<path fill-rule="evenodd" clip-rule="evenodd" d="M179.873 91.9055L179.873 87.0811L175.081 87.0811L175.081 91.9055L179.873 91.9055Z" fill="#D8D8D8"/>
<path fill-rule="evenodd" clip-rule="evenodd" d="M158.459 158L158.459 153.176L153.668 153.176L153.668 158L158.459 158Z" fill="#D8D8D8"/>
<path fill-rule="evenodd" clip-rule="evenodd" d="M136.417 158L136.417 153.176L131.625 153.176L131.625 158L136.417 158Z" fill="#D8D8D8"/>
<path fill-rule="evenodd" clip-rule="evenodd" d="M114.375 158L114.375 153.176L109.583 153.176L109.583 158L114.375 158Z" fill="#D8D8D8"/>
<path fill-rule="evenodd" clip-rule="evenodd" d="M92.3324 158L92.3324 153.176L87.5406 153.176L87.5406 158L92.3324 158Z" fill="#D8D8D8"/>
<path fill-rule="evenodd" clip-rule="evenodd" d="M158.459 135.808L158.459 130.983L153.668 130.983L153.668 135.808L158.459 135.808Z" fill="#D8D8D8"/>
<path fill-rule="evenodd" clip-rule="evenodd" d="M136.417 135.808L136.417 130.983L131.625 130.983L131.625 135.808L136.417 135.808Z" fill="#D8D8D8"/>
<path fill-rule="evenodd" clip-rule="evenodd" d="M114.375 135.808L114.375 130.983L109.583 130.983L109.583 135.808L114.375 135.808Z" fill="#D8D8D8"/>
<path fill-rule="evenodd" clip-rule="evenodd" d="M92.3324 135.808L92.3324 130.983L87.5406 130.983L87.5406 135.808L92.3324 135.808Z" fill="#D8D8D8"/>
<path fill-rule="evenodd" clip-rule="evenodd" d="M158.459 114.098L158.459 109.273L153.668 109.273L153.668 114.098L158.459 114.098Z" fill="#D8D8D8"/>
<path fill-rule="evenodd" clip-rule="evenodd" d="M136.417 114.098L136.417 109.273L131.625 109.273L131.625 114.098L136.417 114.098Z" fill="#D8D8D8"/>
<path fill-rule="evenodd" clip-rule="evenodd" d="M114.375 114.098L114.375 109.273L109.583 109.273L109.583 114.098L114.375 114.098Z" fill="#D8D8D8"/>
<path fill-rule="evenodd" clip-rule="evenodd" d="M92.3324 114.098L92.3324 109.273L87.5406 109.273L87.5406 114.098L92.3324 114.098Z" fill="#D8D8D8"/>
<path fill-rule="evenodd" clip-rule="evenodd" d="M158.459 91.9055L158.459 87.0811L153.668 87.0811L153.668 91.9055L158.459 91.9055Z" fill="#D8D8D8"/>
<path fill-rule="evenodd" clip-rule="evenodd" d="M136.417 91.9055L136.417 87.0811L131.625 87.0811L131.625 91.9055L136.417 91.9055Z" fill="#D8D8D8"/>
<path fill-rule="evenodd" clip-rule="evenodd" d="M114.375 91.9055L114.375 87.0811L109.583 87.0811L109.583 91.9055L114.375 91.9055Z" fill="#D8D8D8"/>
<path fill-rule="evenodd" clip-rule="evenodd" d="M92.3324 91.9055L92.3324 87.0811L87.5406 87.0811L87.5406 91.9055L92.3324 91.9055Z" fill="#D8D8D8"/>
<path fill-rule="evenodd" clip-rule="evenodd" d="M70.9189 158L70.9189 153.176L66.1271 153.176L66.1271 158L70.9189 158Z" fill="#D7D7D8"/>
<path fill-rule="evenodd" clip-rule="evenodd" d="M48.8766 158L48.8766 153.176L44.0848 153.176L44.0848 158L48.8766 158Z" fill="#D8D8D8"/>
<path fill-rule="evenodd" clip-rule="evenodd" d="M26.8342 158L26.8342 153.176L22.0424 153.176L22.0424 158L26.8342 158Z" fill="#D8D8D8"/>
<path fill-rule="evenodd" clip-rule="evenodd" d="M4.79187 158L4.79187 153.176L4.9857e-05 153.176L5.00679e-05 158L4.79187 158Z" fill="#D8D8D8"/>
<path fill-rule="evenodd" clip-rule="evenodd" d="M70.9189 135.808L70.9189 130.983L66.1271 130.983L66.1271 135.808L70.9189 135.808Z" fill="#D8D8D8"/>
<path fill-rule="evenodd" clip-rule="evenodd" d="M48.8766 135.808L48.8766 130.983L44.0848 130.983L44.0848 135.808L48.8766 135.808Z" fill="#D8D8D8"/>
<path fill-rule="evenodd" clip-rule="evenodd" d="M26.8342 135.808L26.8342 130.983L22.0424 130.983L22.0424 135.808L26.8342 135.808Z" fill="#D8D8D8"/>
<path fill-rule="evenodd" clip-rule="evenodd" d="M4.79187 135.808L4.79187 130.983L4.9857e-05 130.983L5.00679e-05 135.808L4.79187 135.808Z" fill="#D8D8D8"/>
<path fill-rule="evenodd" clip-rule="evenodd" d="M70.9189 114.098L70.9189 109.273L66.1271 109.273L66.1271 114.098L70.9189 114.098Z" fill="#D8D8D8"/>
<path fill-rule="evenodd" clip-rule="evenodd" d="M48.8766 114.098L48.8766 109.273L44.0848 109.273L44.0848 114.098L48.8766 114.098Z" fill="#D8D8D8"/>
<path fill-rule="evenodd" clip-rule="evenodd" d="M26.8342 114.098L26.8342 109.273L22.0424 109.273L22.0424 114.098L26.8342 114.098Z" fill="#D8D8D8"/>
<path fill-rule="evenodd" clip-rule="evenodd" d="M4.79187 114.098L4.79187 109.273L4.9857e-05 109.273L5.00679e-05 114.098L4.79187 114.098Z" fill="#D8D8D8"/>
<path fill-rule="evenodd" clip-rule="evenodd" d="M70.9189 91.9055L70.9189 87.0811L66.1271 87.0811L66.1271 91.9055L70.9189 91.9055Z" fill="#D8D8D8"/>
<path fill-rule="evenodd" clip-rule="evenodd" d="M48.8766 91.9055L48.8766 87.0811L44.0848 87.0811L44.0848 91.9055L48.8766 91.9055Z" fill="#D8D8D8"/>
<path fill-rule="evenodd" clip-rule="evenodd" d="M26.8342 91.9055L26.8342 87.0811L22.0424 87.0811L22.0424 91.9055L26.8342 91.9055Z" fill="#D8D8D8"/>
<path fill-rule="evenodd" clip-rule="evenodd" d="M4.79187 91.9055L4.79187 87.0811L4.9857e-05 87.0811L5.00679e-05 91.9055L4.79187 91.9055Z" fill="#D8D8D8"/>
<path fill-rule="evenodd" clip-rule="evenodd" d="M246 70.459L246 65.6346L241.208 65.6346L241.208 70.459L246 70.459Z" fill="#D8D8D8"/>
<path fill-rule="evenodd" clip-rule="evenodd" d="M223.958 70.459L223.958 65.6346L219.166 65.6346L219.166 70.459L223.958 70.459Z" fill="#D8D8D8"/>
<path fill-rule="evenodd" clip-rule="evenodd" d="M201.915 70.459L201.915 65.6346L197.123 65.6346L197.123 70.459L201.915 70.459Z" fill="#D8D8D8"/>
<path fill-rule="evenodd" clip-rule="evenodd" d="M179.873 70.459L179.873 65.6346L175.081 65.6346L175.081 70.459L179.873 70.459Z" fill="#D8D8D8"/>
<path fill-rule="evenodd" clip-rule="evenodd" d="M246 48.2676L246 43.4432L241.208 43.4432L241.208 48.2676L246 48.2676Z" fill="#D8D8D8"/>
<path fill-rule="evenodd" clip-rule="evenodd" d="M223.958 48.2676L223.958 43.4432L219.166 43.4432L219.166 48.2676L223.958 48.2676Z" fill="#D8D8D8"/>
<path fill-rule="evenodd" clip-rule="evenodd" d="M201.915 48.2676L201.915 43.4432L197.123 43.4432L197.123 48.2676L201.915 48.2676Z" fill="#D8D8D8"/>
<path fill-rule="evenodd" clip-rule="evenodd" d="M179.873 48.2676L179.873 43.4432L175.081 43.4432L175.081 48.2676L179.873 48.2676Z" fill="#D8D8D8"/>
<path fill-rule="evenodd" clip-rule="evenodd" d="M246 26.5576L246 21.7332L241.208 21.7332L241.208 26.5576L246 26.5576Z" fill="#D8D8D8"/>
<path fill-rule="evenodd" clip-rule="evenodd" d="M223.958 26.5576L223.958 21.7332L219.166 21.7332L219.166 26.5576L223.958 26.5576Z" fill="#D8D8D8"/>
<path fill-rule="evenodd" clip-rule="evenodd" d="M201.915 26.5576L201.915 21.7332L197.123 21.7332L197.123 26.5576L201.915 26.5576Z" fill="#D8D8D8"/>
<path fill-rule="evenodd" clip-rule="evenodd" d="M179.873 26.5576L179.873 21.7332L175.081 21.7332L175.081 26.5576L179.873 26.5576Z" fill="#D8D8D8"/>
<path fill-rule="evenodd" clip-rule="evenodd" d="M246 4.36523L246 -0.459186L241.208 -0.459185L241.208 4.36523L246 4.36523Z" fill="#D8D8D8"/>
<path fill-rule="evenodd" clip-rule="evenodd" d="M223.958 4.36523L223.958 -0.459186L219.166 -0.459185L219.166 4.36523L223.958 4.36523Z" fill="#D8D8D8"/>
<path fill-rule="evenodd" clip-rule="evenodd" d="M201.915 4.36523L201.915 -0.459186L197.123 -0.459185L197.123 4.36523L201.915 4.36523Z" fill="#D8D8D8"/>
<path fill-rule="evenodd" clip-rule="evenodd" d="M179.873 4.36523L179.873 -0.459186L175.081 -0.459185L175.081 4.36523L179.873 4.36523Z" fill="#D8D8D8"/>
<path fill-rule="evenodd" clip-rule="evenodd" d="M158.459 70.459L158.459 65.6346L153.668 65.6346L153.668 70.459L158.459 70.459Z" fill="#D7D7D7"/>
<path fill-rule="evenodd" clip-rule="evenodd" d="M136.417 70.459L136.417 65.6346L131.625 65.6346L131.625 70.459L136.417 70.459Z" fill="#D8D8D8"/>
<path fill-rule="evenodd" clip-rule="evenodd" d="M114.375 70.459L114.375 65.6346L109.583 65.6346L109.583 70.459L114.375 70.459Z" fill="#D8D8D8"/>
<path fill-rule="evenodd" clip-rule="evenodd" d="M92.3324 70.459L92.3324 65.6346L87.5406 65.6346L87.5406 70.459L92.3324 70.459Z" fill="#D8D8D8"/>
<path fill-rule="evenodd" clip-rule="evenodd" d="M158.459 48.2676L158.459 43.4432L153.668 43.4432L153.668 48.2676L158.459 48.2676Z" fill="#D8D8D8"/>
<path fill-rule="evenodd" clip-rule="evenodd" d="M136.417 48.2676L136.417 43.4432L131.625 43.4432L131.625 48.2676L136.417 48.2676Z" fill="#D8D8D8"/>
<path fill-rule="evenodd" clip-rule="evenodd" d="M114.375 48.2676L114.375 43.4432L109.583 43.4432L109.583 48.2676L114.375 48.2676Z" fill="#D8D8D8"/>
<path fill-rule="evenodd" clip-rule="evenodd" d="M92.3324 48.2676L92.3324 43.4432L87.5406 43.4432L87.5406 48.2676L92.3324 48.2676Z" fill="#D8D8D8"/>
<path fill-rule="evenodd" clip-rule="evenodd" d="M158.459 26.5576L158.459 21.7332L153.668 21.7332L153.668 26.5576L158.459 26.5576Z" fill="#D8D8D8"/>
<path fill-rule="evenodd" clip-rule="evenodd" d="M136.417 26.5576L136.417 21.7332L131.625 21.7332L131.625 26.5576L136.417 26.5576Z" fill="#D8D8D8"/>
<path fill-rule="evenodd" clip-rule="evenodd" d="M114.375 26.5576L114.375 21.7332L109.583 21.7332L109.583 26.5576L114.375 26.5576Z" fill="#D8D8D8"/>
<path fill-rule="evenodd" clip-rule="evenodd" d="M92.3324 26.5576L92.3324 21.7332L87.5406 21.7332L87.5406 26.5576L92.3324 26.5576Z" fill="#D8D8D8"/>
<path fill-rule="evenodd" clip-rule="evenodd" d="M158.459 4.36523L158.459 -0.459186L153.668 -0.459185L153.668 4.36523L158.459 4.36523Z" fill="#D8D8D8"/>
<path fill-rule="evenodd" clip-rule="evenodd" d="M136.417 4.36523L136.417 -0.459186L131.625 -0.459185L131.625 4.36523L136.417 4.36523Z" fill="#D8D8D8"/>
<path fill-rule="evenodd" clip-rule="evenodd" d="M114.375 4.36523L114.375 -0.459186L109.583 -0.459185L109.583 4.36523L114.375 4.36523Z" fill="#D8D8D8"/>
<path fill-rule="evenodd" clip-rule="evenodd" d="M92.3324 4.36523L92.3324 -0.459186L87.5406 -0.459185L87.5406 4.36523L92.3324 4.36523Z" fill="#D8D8D8"/>
<path fill-rule="evenodd" clip-rule="evenodd" d="M48.8766 70.459L48.8766 65.6346L44.0848 65.6346L44.0848 70.459L48.8766 70.459Z" fill="#D8D8D8"/>
<path fill-rule="evenodd" clip-rule="evenodd" d="M26.8342 70.459L26.8342 65.6346L22.0424 65.6346L22.0424 70.459L26.8342 70.459Z" fill="#D8D8D8"/>
<path fill-rule="evenodd" clip-rule="evenodd" d="M4.79187 70.459L4.79187 65.6346L4.9857e-05 65.6346L5.00679e-05 70.459L4.79187 70.459Z" fill="#D8D8D8"/>
<path fill-rule="evenodd" clip-rule="evenodd" d="M48.8766 48.2676L48.8766 43.4432L44.0848 43.4432L44.0848 48.2676L48.8766 48.2676Z" fill="#D8D8D8"/>
<path fill-rule="evenodd" clip-rule="evenodd" d="M26.8342 48.2676L26.8342 43.4432L22.0424 43.4432L22.0424 48.2676L26.8342 48.2676Z" fill="#D8D8D8"/>
<path fill-rule="evenodd" clip-rule="evenodd" d="M4.79187 48.2676L4.79187 43.4432L4.9857e-05 43.4432L5.00679e-05 48.2676L4.79187 48.2676Z" fill="#D8D8D8"/>
<path fill-rule="evenodd" clip-rule="evenodd" d="M48.8766 26.5576L48.8766 21.7332L44.0848 21.7332L44.0848 26.5576L48.8766 26.5576Z" fill="#D8D8D8"/>
<path fill-rule="evenodd" clip-rule="evenodd" d="M26.8342 26.5576L26.8342 21.7332L22.0424 21.7332L22.0424 26.5576L26.8342 26.5576Z" fill="#D8D8D8"/>
<path fill-rule="evenodd" clip-rule="evenodd" d="M4.79187 26.5576L4.79187 21.7332L4.9857e-05 21.7332L5.00679e-05 26.5576L4.79187 26.5576Z" fill="#D8D8D8"/>
<path fill-rule="evenodd" clip-rule="evenodd" d="M48.8766 4.36523L48.8766 -0.459186L44.0848 -0.459185L44.0848 4.36523L48.8766 4.36523Z" fill="#D8D8D8"/>
<path fill-rule="evenodd" clip-rule="evenodd" d="M26.8342 4.36523L26.8342 -0.459186L22.0424 -0.459185L22.0424 4.36523L26.8342 4.36523Z" fill="#D8D8D8"/>
<path fill-rule="evenodd" clip-rule="evenodd" d="M4.79187 4.36523L4.79187 -0.459186L4.9857e-05 -0.459185L5.00679e-05 4.36523L4.79187 4.36523Z" fill="#D8D8D8"/>
<path fill-rule="evenodd" clip-rule="evenodd" d="M65.9189 48.2676H70.7434V43.4758H65.9189V48.2676Z" fill="#01114A"/>
<path fill-rule="evenodd" clip-rule="evenodd" d="M65.9189 26.2676H70.7434V21.4758H65.9189V26.2676Z" fill="#01114A"/>
<path fill-rule="evenodd" clip-rule="evenodd" d="M65.9189 4.26758H70.7434V-0.524242H65.9189V4.26758Z" fill="#01114A"/>
<path fill-rule="evenodd" clip-rule="evenodd" d="M66 70H70.8244V65.2082H66V70Z" fill="#00BCE8"/>
</svg>
