<svg width="284" height="48" viewBox="0 0 284 48" fill="none" xmlns="http://www.w3.org/2000/svg">
<path d="M52.7127 13.7326V2.63477H58.2851C58.8142 2.63477 59.2841 2.72001 59.6942 2.89048C60.1047 3.06057 60.4448 3.29741 60.7149 3.60101C60.9847 3.90424 61.1901 4.2663 61.3305 4.68682C61.4709 5.10733 61.5409 5.5731 61.5409 6.08413C61.5409 6.59478 61.4736 7.07412 61.3386 7.52104C61.2035 7.96833 61.0038 8.35416 60.7391 8.67888C60.4747 9.0036 60.1372 9.25894 59.7267 9.44525C59.3166 9.63156 58.8357 9.72472 58.2851 9.72472H54.5434V13.7326H52.7127ZM54.5434 4.29571V8.0321H57.6535C58.3662 8.0321 58.8873 7.8752 59.2163 7.56103C59.5457 7.24687 59.7106 6.75469 59.7106 6.08413C59.7106 5.44525 59.535 4.9874 59.1842 4.71057C58.833 4.43412 58.323 4.29571 57.6535 4.29571H54.5434Z" fill="#2B2A29"/>
<path d="M70.839 13.7326H62.6099V2.63477H70.8876L70.3527 4.31155H64.4241V7.01001H69.8182V8.70263H64.4241V12.0558H70.839V13.7326Z" fill="#2B2A29"/>
<path d="M74.1273 8.19155C74.1273 8.81988 74.1732 9.38408 74.2647 9.88417C74.3565 10.3846 74.5241 10.8104 74.767 11.1616C75.01 11.5131 75.3501 11.782 75.7874 11.9683C76.2247 12.1542 76.7944 12.2474 77.4964 12.2474C77.993 12.2474 78.4307 12.1915 78.8087 12.0799C79.1863 11.9683 79.5483 11.7314 79.8937 11.3694L81.1088 12.4872C80.6226 12.9979 80.072 13.3652 79.4564 13.5889C78.8408 13.8125 78.1878 13.9242 77.4964 13.9242C76.5568 13.9242 75.7552 13.7858 75.0911 13.5089C74.4269 13.2321 73.884 12.8436 73.4632 12.3435C73.042 11.8431 72.7312 11.2442 72.5315 10.5468C72.3318 9.84987 72.232 9.07519 72.232 8.2236V7.63302C72.232 6.82367 72.3479 6.09725 72.5802 5.45309C72.8124 4.80931 73.1525 4.2636 73.6009 3.81631C74.0489 3.36939 74.5994 3.02883 75.2529 2.79463C75.9064 2.56042 76.654 2.44312 77.4964 2.44312C78.1552 2.44312 78.7976 2.54984 79.4239 2.76255C80.0505 2.97563 80.6011 3.32149 81.0763 3.80047L79.8451 5.02995C79.4996 4.68938 79.1434 4.45518 78.7762 4.32733C78.4089 4.19985 77.9823 4.13574 77.4964 4.13574C76.341 4.13574 75.4905 4.4367 74.9453 5.03786C74.3998 5.63941 74.1273 6.51515 74.1273 7.66469V8.19155Z" fill="#2B2A29"/>
<path d="M89.7422 13.7326V4.31155H84.5428V13.7326H82.7122V2.63477H91.5729V13.7326H89.7422Z" fill="#2B2A29"/>
<path d="M97.2749 10.491C97.0155 10.3952 96.7917 10.2515 96.6027 10.0599C96.4137 9.86831 96.2595 9.64993 96.1409 9.40516L92.9823 2.89039L94.7479 2.42725L97.5986 8.28732C97.6636 8.41517 97.7336 8.50305 97.8094 8.55095C97.8848 8.59885 97.9876 8.62299 98.117 8.62299L100.935 2.42725L102.637 2.87415L98.3277 12.3435C98.2413 12.5457 98.1469 12.7399 98.0443 12.9262C97.9418 13.1125 97.8121 13.28 97.6556 13.4293C97.4987 13.5783 97.307 13.6978 97.0805 13.7884C96.8537 13.8789 96.5728 13.9241 96.2381 13.9241C96.0544 13.9241 95.8681 13.9003 95.6791 13.8524C95.4901 13.8046 95.3096 13.7646 95.1366 13.7325V12.2794H95.6871C95.9358 12.2794 96.1436 12.2447 96.3108 12.1757C96.4784 12.1063 96.6161 11.9494 96.7239 11.7046L97.2749 10.491Z" fill="#2B2A29"/>
<path d="M112.566 10.2836C112.566 11.4547 112.242 12.3221 111.594 12.8863C110.946 13.4505 110.06 13.7326 108.937 13.7326H103.77V2.63477H111.448L110.897 4.31155H105.601V7.01001H109.018C110.152 7.01001 111.027 7.28686 111.642 7.8405C112.258 8.39415 112.566 9.20838 112.566 10.2836ZM110.8 10.2836C110.8 9.66624 110.622 9.24575 110.265 9.0221C109.909 8.79846 109.385 8.6868 108.694 8.6868H105.601V12.072H108.613C108.948 12.072 109.25 12.0426 109.521 11.9842C109.79 11.9257 110.02 11.8299 110.209 11.6968C110.398 11.5637 110.544 11.3826 110.646 11.1537C110.749 10.9248 110.8 10.6347 110.8 10.2836Z" fill="#2B2A29"/>
<path d="M114.38 13.9242C114.142 13.9242 113.894 13.8605 113.635 13.7326V12.2316C114.088 12.2316 114.415 12.0958 114.615 11.8243C114.815 11.5531 114.947 11.2363 115.012 10.8742C115.044 10.6932 115.074 10.4937 115.101 10.2757C115.128 10.0573 115.152 9.80995 115.174 9.53313L115.741 2.63477H122.333V13.7326H120.503V4.31155H117.409L116.907 9.91631C116.885 10.0868 116.861 10.2701 116.834 10.4673C116.807 10.6642 116.772 10.8795 116.729 11.1137C116.675 11.4332 116.597 11.7606 116.494 12.0958C116.391 12.4311 116.248 12.7347 116.065 13.0062C115.881 13.2774 115.654 13.4984 115.384 13.6689C115.114 13.839 114.78 13.9242 114.38 13.9242Z" fill="#2B2A29"/>
<path d="M131.68 13.7326V5.42939L126.075 13.7326H124.293V2.63477H126.124V10.8742L131.68 2.63477H133.51V13.7326H131.68Z" fill="#2B2A29"/>
<path d="M137.301 2.63477V7.2974H138.176L141.286 2.63477H143.327L139.828 8.01622L144.007 13.7326H141.885L138.224 8.71888H137.301V13.7326H135.47V2.63477H137.301Z" fill="#2B2A29"/>
<path d="M148.494 9.00623H151.88L150.406 5.28572L150.146 4.04L149.887 5.28572L148.494 9.00623ZM147.943 10.571L146.761 13.7326H144.833L149.029 2.63477H151.216L155.622 13.7326H153.726L152.479 10.571H147.943Z" fill="#2B2A29"/>
<path d="M158.683 8.67068V13.7165H156.868V2.61865H158.683V6.97806H164.061V2.61865H165.891V13.7165H164.061V8.67068H158.683Z" fill="#2B2A29"/>
<path d="M169.39 8.19155C169.39 8.81988 169.436 9.38408 169.528 9.88417C169.619 10.3846 169.787 10.8104 170.03 11.1616C170.273 11.5131 170.613 11.782 171.05 11.9683C171.488 12.1542 172.057 12.2474 172.759 12.2474C173.256 12.2474 173.694 12.1915 174.072 12.0799C174.449 11.9683 174.811 11.7314 175.157 11.3694L176.372 12.4872C175.885 12.9979 175.335 13.3652 174.719 13.5889C174.104 13.8125 173.451 13.9242 172.759 13.9242C171.82 13.9242 171.018 13.7858 170.354 13.5089C169.69 13.2321 169.147 12.8436 168.726 12.3435C168.305 11.8431 167.994 11.2442 167.794 10.5468C167.595 9.84987 167.495 9.07519 167.495 8.2236V7.63302C167.495 6.82367 167.611 6.09725 167.843 5.45309C168.075 4.80931 168.415 4.2636 168.864 3.81631C169.312 3.36939 169.862 3.02883 170.516 2.79463C171.169 2.56042 171.917 2.44312 172.759 2.44312C173.418 2.44312 174.06 2.54984 174.687 2.76255C175.313 2.97563 175.864 3.32149 176.339 3.80047L175.108 5.02995C174.763 4.68938 174.406 4.45518 174.039 4.32733C173.672 4.19985 173.245 4.13574 172.759 4.13574C171.604 4.13574 170.753 4.4367 170.208 5.03786C169.663 5.63941 169.39 6.51515 169.39 7.66469V8.19155Z" fill="#2B2A29"/>
<path d="M179.806 2.63477V7.2974H180.68L183.79 2.63477H185.831L182.333 8.01622L186.512 13.7326H184.39L180.729 8.71888H179.806V13.7326H177.975V2.63477H179.806Z" fill="#2B2A29"/>
<path d="M195.405 13.7326V5.42939L189.8 13.7326H188.018V2.63477H189.849V10.8742L195.405 2.63477H197.235V13.7326H195.405Z" fill="#2B2A29"/>
<path d="M206.582 13.7326V5.42937L200.977 13.7326H199.195V2.63475H201.026V10.8742L206.582 2.63475H208.412V13.7326H206.582ZM203.699 1.94834C203.396 1.94834 203.102 1.91364 202.816 1.84462C202.529 1.77523 202.273 1.66094 202.046 1.50103C201.819 1.3415 201.638 1.13935 201.504 0.894209C201.369 0.649442 201.301 0.351499 201.301 0H202.451C202.451 0.319442 202.573 0.545728 202.816 0.678861C203.058 0.811993 203.353 0.878372 203.699 0.878372C204.022 0.878372 204.311 0.814631 204.565 0.686779C204.819 0.558927 204.946 0.330002 204.946 0H206.096C206.096 0.351499 206.025 0.652108 205.885 0.902532C205.745 1.15258 205.561 1.3547 205.335 1.50895C205.108 1.66358 204.851 1.77523 204.565 1.84462C204.279 1.91364 203.99 1.94834 203.699 1.94834Z" fill="#2B2A29"/>
<path d="M223.023 12.0558H224.092V16.0159H222.391V13.7326H213.855V2.63477H215.685V12.0558H221.193V2.63477H223.023V12.0558Z" fill="#2B2A29"/>
<path d="M234.071 13.7326H225.842V2.63477H234.119L233.584 4.31155H227.656V7.01001H233.05V8.70263H227.656V12.0558H234.071V13.7326Z" fill="#2B2A29"/>
<path d="M237.634 8.67068V13.7165H235.82V2.61865H237.634V6.97806H243.012V2.61865H244.843V13.7165H243.012V8.67068H237.634Z" fill="#2B2A29"/>
<path d="M251.484 4.31155V13.7326H249.653V4.31155H246.09V2.63477H255.226L254.691 4.31155H251.484Z" fill="#2B2A29"/>
<path d="M256.392 13.7326V2.63477H261.965C262.494 2.63477 262.964 2.72001 263.374 2.89048C263.784 3.06057 264.124 3.29741 264.395 3.60101C264.664 3.90424 264.87 4.2663 265.01 4.68682C265.151 5.10733 265.221 5.5731 265.221 6.08413C265.221 6.59478 265.153 7.07412 265.018 7.52104C264.883 7.96833 264.683 8.35416 264.419 8.67888C264.154 9.0036 263.817 9.25894 263.406 9.44525C262.996 9.63156 262.515 9.72472 261.965 9.72472H258.223V13.7326H256.392ZM258.223 4.29571V8.0321H261.333C262.046 8.0321 262.567 7.8752 262.896 7.56103C263.225 7.24687 263.39 6.75469 263.39 6.08413C263.39 5.44525 263.215 4.9874 262.864 4.71057C262.513 4.43412 262.003 4.29571 261.333 4.29571H258.223Z" fill="#2B2A29"/>
<path d="M60.0994 30.7705V22.4673L54.4948 30.7705H52.7127V19.6726H54.5434V27.9121L60.0994 19.6726H61.9297V30.7705H60.0994Z" fill="#2B2A29"/>
<path d="M65.7038 25.7088V30.7546H63.8896V19.6567H65.7038V24.0161H71.0818V19.6567H72.9121V30.7546H71.0818V25.7088H65.7038Z" fill="#2B2A29"/>
<path d="M79.5216 30.7704V29.2373C79.3379 29.3014 79.1218 29.3546 78.8735 29.3973C78.6252 29.4399 78.4089 29.461 78.2257 29.461C77.5883 29.461 77.0293 29.352 76.5488 29.1336C76.0683 28.9156 75.6689 28.6147 75.3502 28.2315C75.0319 27.8483 74.7943 27.3984 74.6374 26.8821C74.4809 26.3657 74.4029 25.8045 74.4029 25.1977V24.8783C74.4029 24.2715 74.4809 23.7099 74.6374 23.1936C74.7943 22.6773 75.0319 22.2277 75.3502 21.8445C75.6689 21.461 76.0683 21.1604 76.5488 20.942C77.0293 20.724 77.5883 20.6147 78.2257 20.6147C78.4089 20.6147 78.6252 20.6388 78.8735 20.6867C79.1218 20.7346 79.3379 20.7851 79.5216 20.8383V19.481H81.3519V20.8383C81.5355 20.7851 81.7513 20.7346 81.9996 20.6867C82.2482 20.6388 82.464 20.6147 82.6476 20.6147C83.2847 20.6147 83.8436 20.724 84.3242 20.942C84.8047 21.1604 85.2045 21.461 85.5228 21.8445C85.8415 22.2277 86.0791 22.6773 86.2356 23.1936C86.3921 23.7099 86.4705 24.2715 86.4705 24.8783V25.1977C86.4705 25.8045 86.3921 26.3657 86.2356 26.8821C86.0791 27.3984 85.8415 27.8483 85.5228 28.2315C85.2045 28.6147 84.8047 28.9156 84.3242 29.1336C83.8436 29.352 83.2847 29.461 82.6476 29.461C82.464 29.461 82.2482 29.4399 81.9996 29.3973C81.7513 29.3546 81.5355 29.3014 81.3519 29.2373V30.7704H79.5216ZM84.7695 25.2456V24.8304C84.7695 24.4683 84.7266 24.133 84.6402 23.8245C84.5537 23.5156 84.4214 23.2468 84.2431 23.0178C84.0652 22.7893 83.8329 22.6109 83.5467 22.4831C83.2606 22.3552 82.9231 22.2915 82.5344 22.2915C82.0807 22.2915 81.6866 22.3714 81.3519 22.5309V27.5609C81.5248 27.6567 81.7107 27.7205 81.9108 27.7525C82.1105 27.7846 82.3076 27.8004 82.5019 27.8004C82.9014 27.8004 83.2445 27.7366 83.5307 27.6088C83.8168 27.4809 84.0487 27.3026 84.227 27.074C84.4053 26.8451 84.5376 26.5736 84.6237 26.2594C84.7102 25.9456 84.7588 25.6073 84.7695 25.2456ZM76.1035 25.2456C76.1142 25.6073 76.1628 25.9456 76.2493 26.2594C76.3358 26.5736 76.4681 26.8451 76.646 27.074C76.8243 27.3026 77.0539 27.4809 77.3347 27.6088C77.6155 27.7366 77.961 27.8004 78.3715 27.8004C78.5658 27.8004 78.7629 27.7846 78.9626 27.7525C79.1623 27.7205 79.3486 27.6567 79.5216 27.5609V22.5309C79.1757 22.3714 78.7816 22.2915 78.339 22.2915C77.9503 22.2915 77.6128 22.3552 77.3266 22.4831C77.0404 22.6109 76.8082 22.7893 76.6299 23.0178C76.4517 23.2468 76.3196 23.5156 76.2332 23.8245C76.1467 24.133 76.1035 24.4683 76.1035 24.8304V25.2456Z" fill="#2B2A29"/>
<path d="M93.0795 30.962C92.1724 30.962 91.3758 30.821 90.6902 30.5388C90.0043 30.2567 89.435 29.8604 88.9812 29.3493C88.5279 28.8383 88.1846 28.2315 87.9528 27.5289C87.7206 26.8263 87.6043 26.0546 87.6043 25.2136V24.7825C87.6043 24.0052 87.7393 23.2894 88.0094 22.6346C88.2792 21.9799 88.6572 21.4214 89.1431 20.9582C89.6293 20.4951 90.207 20.133 90.8765 19.8724C91.5461 19.6114 92.2803 19.481 93.0795 19.481C93.8787 19.481 94.6129 19.6114 95.2824 19.8724C95.952 20.133 96.527 20.4951 97.0075 20.9582C97.488 21.4214 97.8634 21.9799 98.1335 22.6346C98.4033 23.2894 98.5383 24.0052 98.5383 24.7825V25.2136C98.5383 26.0546 98.425 26.8263 98.1982 27.5289C97.9713 28.2315 97.6285 28.8383 97.1694 29.3493C96.7106 29.8604 96.141 30.2567 95.4607 30.5388C94.7801 30.821 93.9866 30.962 93.0795 30.962ZM93.0795 21.1577C91.8915 21.1577 90.9979 21.4877 90.3987 22.1477C89.7992 22.8077 89.4997 23.6967 89.4997 24.8145V25.1815C89.4997 25.7672 89.559 26.3099 89.678 26.8104C89.7966 27.3109 89.9962 27.7446 90.277 28.1119C90.5578 28.4789 90.9224 28.7663 91.3705 28.9741C91.8185 29.1815 92.3774 29.2852 93.047 29.2852C93.7383 29.2852 94.3133 29.1868 94.7721 28.9899C95.2312 28.793 95.5985 28.5136 95.8736 28.1515C96.149 27.7898 96.346 27.3561 96.465 26.8504C96.5836 26.3446 96.6429 25.7883 96.6429 25.1815V24.8145C96.6429 23.6967 96.3434 22.8077 95.7442 22.1477C95.1447 21.4877 94.2563 21.1577 93.0795 21.1577Z" fill="#2B2A29"/>
<path d="M101.973 19.6726V24.3352H102.847L105.957 19.6726H107.998L104.5 25.0541L108.679 30.7705H106.557L102.896 25.7567H101.973V30.7705H100.142V19.6726H101.973Z" fill="#2B2A29"/>
<path d="M115.32 30.962C114.413 30.962 113.616 30.821 112.93 30.5388C112.244 30.2567 111.675 29.8604 111.221 29.3493C110.768 28.8383 110.425 28.2315 110.193 27.5289C109.961 26.8263 109.845 26.0546 109.845 25.2136V24.7825C109.845 24.0052 109.98 23.2894 110.25 22.6346C110.519 21.9799 110.897 21.4214 111.383 20.9582C111.87 20.4951 112.447 20.133 113.117 19.8724C113.786 19.6114 114.52 19.481 115.32 19.481C116.119 19.481 116.853 19.6114 117.523 19.8724C118.192 20.133 118.767 20.4951 119.248 20.9582C119.728 21.4214 120.104 21.9799 120.374 22.6346C120.643 23.2894 120.778 24.0052 120.778 24.7825V25.2136C120.778 26.0546 120.665 26.8263 120.438 27.5289C120.212 28.2315 119.869 28.8383 119.41 29.3493C118.951 29.8604 118.381 30.2567 117.701 30.5388C117.02 30.821 116.227 30.962 115.32 30.962ZM115.32 21.1577C114.132 21.1577 113.238 21.4877 112.639 22.1477C112.039 22.8077 111.74 23.6967 111.74 24.8145V25.1815C111.74 25.7672 111.799 26.3099 111.918 26.8104C112.037 27.3109 112.236 27.7446 112.517 28.1119C112.798 28.4789 113.163 28.7663 113.611 28.9741C114.059 29.1815 114.618 29.2852 115.287 29.2852C115.979 29.2852 116.554 29.1868 117.012 28.9899C117.471 28.793 117.839 28.5136 118.114 28.1515C118.389 27.7898 118.586 27.3561 118.705 26.8504C118.824 26.3446 118.883 25.7883 118.883 25.1815V24.8145C118.883 23.6967 118.584 22.8077 117.984 22.1477C117.385 21.4877 116.497 21.1577 115.32 21.1577Z" fill="#2B2A29"/>
<path d="M122.382 30.7705V19.6726H124.845L128.003 27.4331L131.162 19.6726H133.576V30.7705H131.745V22.4032L128.878 29.461H127.112L124.213 22.2116V30.7705H122.382Z" fill="#2B2A29"/>
<path d="M135.535 30.7705V19.6726H137.997L141.156 27.4331L144.315 19.6726H146.729V30.7705H144.898V22.4032L142.031 29.461H140.265L137.366 22.2116V30.7705H135.535Z" fill="#2B2A29"/>
<path d="M152.43 27.5288C152.171 27.433 151.947 27.2893 151.758 27.0977C151.569 26.9061 151.415 26.6878 151.296 26.443L148.138 19.9282L149.903 19.4651L152.754 25.3252C152.819 25.453 152.889 25.5409 152.965 25.5888C153.04 25.6367 153.143 25.6608 153.272 25.6608L156.091 19.4651L157.792 19.912L153.483 29.3813C153.397 29.5835 153.302 29.7777 153.2 29.964C153.097 30.1503 152.967 30.3178 152.811 30.4671C152.654 30.6161 152.462 30.7357 152.236 30.8262C152.009 30.9167 151.728 30.962 151.394 30.962C151.21 30.962 151.023 30.9382 150.834 30.8903C150.645 30.8424 150.465 30.8024 150.292 30.7704V29.3173H150.843C151.091 29.3173 151.299 29.2826 151.466 29.2135C151.634 29.1441 151.771 28.9872 151.879 28.7425L152.43 27.5288Z" fill="#2B2A29"/>
<path d="M160.739 25.7088V30.7546H158.925V19.6567H160.739V24.0161H166.118V19.6567H167.948V30.7546H166.118V25.7088H160.739Z" fill="#2B2A29"/>
<path d="M177.295 30.7705V22.4673L171.69 30.7705H169.908V19.6726H171.739V27.9121L177.295 19.6726H179.125V30.7705H177.295Z" fill="#2B2A29"/>
<path d="M182.915 19.6726V24.3352H183.79L186.9 19.6726H188.941L185.442 25.0541L189.621 30.7705H187.5L183.839 25.7567H182.915V30.7705H181.085V19.6726H182.915Z" fill="#2B2A29"/>
<path d="M194.109 26.0441H197.494L196.02 22.3236L195.761 21.0778L195.502 22.3236L194.109 26.0441ZM193.558 27.6089L192.375 30.7705H190.448L194.643 19.6726H196.83L201.236 30.7705H199.341L198.093 27.6089H193.558Z" fill="#2B2A29"/>
<path d="M211.133 29.0937H212.203V33.0537H210.502V30.7705H201.965V19.6726H203.796V29.0937H209.303V19.6726H211.133V29.0937Z" fill="#2B2A29"/>
<path d="M221.338 30.7705V22.4673L215.734 30.7705H213.952V19.6726H215.782V27.9121L221.338 19.6726H223.169V30.7705H221.338Z" fill="#2B2A29"/>
<path d="M230.264 30.962C229.357 30.962 228.56 30.821 227.874 30.5388C227.188 30.2567 226.619 29.8604 226.165 29.3493C225.712 28.8383 225.369 28.2315 225.137 27.5289C224.905 26.8263 224.788 26.0546 224.788 25.2136V24.7825C224.788 24.0052 224.924 23.2894 225.194 22.6346C225.463 21.9799 225.841 21.4214 226.327 20.9582C226.814 20.4951 227.391 20.133 228.061 19.8724C228.73 19.6114 229.465 19.481 230.264 19.481C231.063 19.481 231.797 19.6114 232.467 19.8724C233.136 20.133 233.711 20.4951 234.192 20.9582C234.672 21.4214 235.048 21.9799 235.318 22.6346C235.587 23.2894 235.723 24.0052 235.723 24.7825V25.2136C235.723 26.0546 235.609 26.8263 235.382 27.5289C235.155 28.2315 234.813 28.8383 234.354 29.3493C233.895 29.8604 233.325 30.2567 232.645 30.5388C231.964 30.821 231.171 30.962 230.264 30.962ZM230.264 21.1577C229.076 21.1577 228.182 21.4877 227.583 22.1477C226.983 22.8077 226.684 23.6967 226.684 24.8145V25.1815C226.684 25.7672 226.743 26.3099 226.862 26.8104C226.981 27.3109 227.18 27.7446 227.461 28.1119C227.742 28.4789 228.107 28.7663 228.555 28.9741C229.003 29.1815 229.562 29.2852 230.231 29.2852C230.923 29.2852 231.498 29.1868 231.956 28.9899C232.415 28.793 232.783 28.5136 233.058 28.1515C233.333 27.7898 233.53 27.3561 233.649 26.8504C233.768 26.3446 233.827 25.7883 233.827 25.1815V24.8145C233.827 23.6967 233.528 22.8077 232.928 22.1477C232.329 21.4877 231.441 21.1577 230.264 21.1577Z" fill="#2B2A29"/>
<path d="M239.14 25.7088V30.7546H237.326V19.6567H239.14V24.0161H244.518V19.6567H246.349V30.7546H244.518V25.7088H239.14Z" fill="#2B2A29"/>
<path d="M250.123 25.7088V30.7546H248.308V19.6567H250.123V24.0161H255.501V19.6567H257.331V30.7546H255.501V25.7088H250.123Z" fill="#2B2A29"/>
<path d="M270.938 19.6726V30.7705H269.108V19.6726H270.938ZM268.038 27.5451C268.038 28.0984 267.95 28.5774 267.771 28.982C267.593 29.3867 267.342 29.722 267.018 29.9879C266.694 30.2541 266.308 30.451 265.86 30.5789C265.411 30.7067 264.918 30.7705 264.378 30.7705H259.291V19.6726H261.122V24.1757H264.637C265.781 24.1757 266.635 24.471 267.196 25.062C267.758 25.6526 268.038 26.4805 268.038 27.5451ZM266.208 27.4331C266.208 26.8904 266.078 26.491 265.819 26.2357C265.56 25.98 265.085 25.8525 264.394 25.8525H261.122V29.0937H264.313C265.004 29.0937 265.493 28.95 265.779 28.6626C266.065 28.3752 266.208 27.9653 266.208 27.4331Z" fill="#2B2A29"/>
<path d="M277.596 26.8425L274.68 30.7704H272.542L276.899 25.0061L273.287 19.9441L275.036 19.481L277.256 22.5309L277.968 23.952L278.681 22.5309L280.9 19.481L282.649 19.9441L279.037 25.0061L283.395 30.7704H281.256L278.325 26.8425L277.968 25.9799L277.596 26.8425Z" fill="#2B2A29"/>
<path d="M57.3941 38.3872V47.8083H55.5638V38.3872H52V36.7104H61.1362L60.6014 38.3872H57.3941Z" fill="#2B2A29"/>
<path d="M70.5314 47.8083H62.3023V36.7104H70.58L70.0452 38.3872H64.1166V41.0857H69.5107V42.7784H64.1166V46.1316H70.5314V47.8083Z" fill="#2B2A29"/>
<path d="M76.9783 43.8803L74.0626 47.8083H71.9243L76.2816 42.044L72.6692 36.9819L74.4187 36.5188L76.6382 39.5688L77.3505 40.9899L78.0633 39.5688L80.2827 36.5188L82.0319 36.9819L78.4198 42.044L82.7772 47.8083H80.6389L77.7071 43.8803L77.3505 43.0178L76.9783 43.8803Z" fill="#2B2A29"/>
<path d="M86.1787 42.7466V47.7925H84.3644V36.6946H86.1787V41.054H91.5567V36.6946H93.387V47.7925H91.5567V42.7466H86.1787Z" fill="#2B2A29"/>
<path d="M100.482 47.9999C99.5751 47.9999 98.7786 47.8588 98.093 47.5767C97.407 47.2946 96.8377 46.8982 96.384 46.3872C95.9306 45.8761 95.5874 45.2693 95.3555 44.5667C95.1233 43.8641 95.007 43.0924 95.007 42.2514V41.8203C95.007 41.043 95.1421 40.3272 95.4122 39.6725C95.6819 39.0178 96.0599 38.4592 96.5458 37.9961C97.0321 37.533 97.6097 37.1709 98.2793 36.9103C98.9488 36.6493 99.683 36.5188 100.482 36.5188C101.281 36.5188 102.016 36.6493 102.685 36.9103C103.355 37.1709 103.93 37.533 104.41 37.9961C104.891 38.4592 105.266 39.0178 105.536 39.6725C105.806 40.3272 105.941 41.043 105.941 41.8203V42.2514C105.941 43.0924 105.828 43.8641 105.601 44.5667C105.374 45.2693 105.031 45.8761 104.572 46.3872C104.113 46.8982 103.544 47.2946 102.863 47.5767C102.183 47.8588 101.389 47.9999 100.482 47.9999ZM100.482 38.1956C99.2943 38.1956 98.4005 38.5256 97.8014 39.1856C97.2019 39.8456 96.9023 40.7346 96.9023 41.8524V42.2194C96.9023 42.8051 96.9616 43.3478 97.0806 43.8483C97.1992 44.3487 97.3989 44.7824 97.6798 45.1498C97.9606 45.5167 98.3252 45.8041 98.7732 46.0119C99.2212 46.2193 99.7802 46.3231 100.45 46.3231C101.141 46.3231 101.716 46.2247 102.175 46.0278C102.634 45.8309 103.001 45.5514 103.276 45.1894C103.552 44.8277 103.749 44.394 103.868 43.8882C103.986 43.3825 104.046 42.8262 104.046 42.2194V41.8524C104.046 40.7346 103.746 39.8456 103.147 39.1856C102.547 38.5256 101.659 38.1956 100.482 38.1956Z" fill="#2B2A29"/>
<path d="M107.836 47.9999C107.598 47.9999 107.35 47.9362 107.091 47.8083V46.3073C107.544 46.3073 107.871 46.1715 108.071 45.9C108.271 45.6288 108.403 45.312 108.468 44.95C108.5 44.7689 108.53 44.5694 108.557 44.3514C108.584 44.1331 108.608 43.8856 108.63 43.6088L109.197 36.7104H115.79V47.8083H113.959V38.3872H110.865L110.363 43.992C110.342 44.1625 110.317 44.3458 110.29 44.543C110.263 44.7399 110.228 44.9552 110.185 45.1894C110.131 45.5089 110.053 45.8362 109.95 46.1715C109.848 46.5068 109.705 46.8104 109.521 47.0819C109.337 47.3531 109.11 47.5741 108.84 47.7446C108.571 47.9147 108.236 47.9999 107.836 47.9999Z" fill="#2B2A29"/>
<path d="M122.885 47.9999C121.977 47.9999 121.181 47.8588 120.495 47.5767C119.809 47.2946 119.24 46.8982 118.786 46.3872C118.333 45.8761 117.99 45.2693 117.758 44.5667C117.526 43.8641 117.409 43.0924 117.409 42.2514V41.8203C117.409 41.043 117.544 40.3272 117.815 39.6725C118.084 39.0178 118.462 38.4592 118.948 37.9961C119.434 37.533 120.012 37.1709 120.682 36.9103C121.351 36.6493 122.085 36.5188 122.885 36.5188C123.684 36.5188 124.418 36.6493 125.088 36.9103C125.757 37.1709 126.332 37.533 126.813 37.9961C127.293 38.4592 127.668 39.0178 127.939 39.6725C128.208 40.3272 128.343 41.043 128.343 41.8203V42.2514C128.343 43.0924 128.23 43.8641 128.003 44.5667C127.776 45.2693 127.434 45.8761 126.974 46.3872C126.516 46.8982 125.946 47.2946 125.266 47.5767C124.585 47.8588 123.792 47.9999 122.885 47.9999ZM122.885 38.1956C121.697 38.1956 120.803 38.5256 120.204 39.1856C119.604 39.8456 119.305 40.7346 119.305 41.8524V42.2194C119.305 42.8051 119.364 43.3478 119.483 43.8483C119.602 44.3487 119.801 44.7824 120.082 45.1498C120.363 45.5167 120.728 45.8041 121.176 46.0119C121.624 46.2193 122.183 46.3231 122.852 46.3231C123.543 46.3231 124.118 46.2247 124.577 46.0278C125.036 45.8309 125.404 45.5514 125.679 45.1894C125.954 44.8277 126.151 44.394 126.27 43.8882C126.389 43.3825 126.448 42.8262 126.448 42.2194V41.8524C126.448 40.7346 126.148 39.8456 125.549 39.1856C124.95 38.5256 124.061 38.1956 122.885 38.1956Z" fill="#2B2A29"/>
<path d="M129.947 47.8083V36.7104H137.349L136.799 38.3872H131.777V47.8083H129.947Z" fill="#2B2A29"/>
<path d="M145.708 47.8083V39.5051L140.103 47.8083H138.321V36.7104H140.152V44.95L145.708 36.7104H147.538V47.8083H145.708Z" fill="#2B2A29"/>
<path d="M156.885 47.8085V39.5053L151.28 47.8085H149.498V36.7106H151.329V44.9501L156.885 36.7106H158.715V47.8085H156.885ZM154.002 36.0243C153.699 36.0243 153.405 35.9896 153.119 35.9205C152.833 35.8512 152.576 35.7369 152.349 35.577C152.122 35.4174 151.941 35.2153 151.807 34.9701C151.672 34.7254 151.604 34.4274 151.604 34.0759H152.754C152.754 34.3954 152.876 34.6217 153.119 34.7548C153.362 34.8879 153.656 34.9543 154.002 34.9543C154.325 34.9543 154.614 34.8906 154.868 34.7627C155.122 34.6349 155.249 34.4059 155.249 34.0759H156.399C156.399 34.4274 156.329 34.728 156.188 34.9784C156.048 35.2285 155.865 35.4306 155.638 35.5849C155.411 35.7395 155.155 35.8512 154.868 35.9205C154.582 35.9896 154.293 36.0243 154.002 36.0243Z" fill="#2B2A29"/>
<path fill-rule="evenodd" clip-rule="evenodd" d="M0 6.05594L10.2411 0.227539C16.1539 3.59248 22.0667 6.95768 27.9795 10.3229V30.5139L17.7385 36.3426V16.1516C11.8257 12.7864 5.91282 9.42115 0 6.05594Z" fill="#254896"/>
<path fill-rule="evenodd" clip-rule="evenodd" d="M10.2411 16.1516C4.32856 19.5168 5.91282 18.6151 0 21.9803V42.1713L10.2411 48C10.2411 29.3325 10.2411 30.9273 10.2411 16.1516V16.1516Z" fill="#3CAB3D"/>
<path fill-rule="evenodd" clip-rule="evenodd" d="M38.938 0.227051H41.1112V47.9995H38.938V0.227051Z" fill="#D9DADA"/>
</svg>
