<svg width="97" height="167" viewBox="0 0 97 167" fill="none" xmlns="http://www.w3.org/2000/svg">
<path d="M96.5 105.584L61.9961 125.385V55.6663V55.3768L61.745 55.2327L1.00455 20.3746L35.5041 0.576479C55.8361 12.2438 76.168 23.912 96.5 35.5803V105.584Z" stroke="#CADCF2"/>
<path d="M0.5 146.335V76.3315C6.73261 72.7547 10.532 70.5743 13.4056 68.9252C19.7312 65.2951 21.5712 64.2392 35.0041 56.5298V56.5685V56.8666V57.1634V57.4589V57.7531V58.0461V58.3379V58.6283V58.9175V59.2055V59.4922V59.7777V60.062V60.345V60.6268V60.9074V61.1868V61.465V61.742V62.0178V62.2924V62.5659V62.8382V63.1093V63.3792V63.648V63.9156V64.1821V64.4475V64.7117V64.9748V65.2368V65.4977V65.7574V66.0161V66.2736V66.5301V66.7855V67.0398V67.293V67.5451V67.7962V68.0463V68.2952V68.5432V68.7901V69.0359V69.2807V69.5245V69.7673V70.0091V70.2499V70.4896V70.7284V70.9662V71.203V71.4388V71.6736V71.9075V72.1404V72.3724V72.6034V72.8335V73.0626V73.2908V73.5181V73.7445V73.9699V74.1944V74.4181V74.6408V74.8626V75.0836V75.3037V75.5229V75.7412V75.9586V76.1753V76.391V76.6059V76.82V77.0332V77.2456V77.4572V77.668V77.8779V78.0871V78.2954V78.503V78.7097V78.9157V79.1209V79.3254V79.529V79.7319V79.9341V80.1355V80.3361V80.5361V80.7352V80.9337V81.1315V81.3285V81.5248V81.7204V81.9153V82.1096V82.3031V82.496V82.6882V82.8797V83.0705V83.2607V83.4503V83.6392V83.8274V84.0151V84.2021V84.3885V84.5742V84.7594V84.9439V85.1278V85.3112V85.494V85.6761V85.8577V86.0388V86.2192V86.3991V86.5785V86.7573V86.9355V87.1132V87.2904V87.4671V87.6432V87.8189V87.994V88.1686V88.3427V88.5164V88.6895V88.8622V89.0344V89.2061V89.3774V89.5482V89.7185V89.8884V90.0579V90.2269V90.3955V90.5637V90.7315V90.8988V91.0658V91.2323V91.3985V91.5643V91.7296V91.8946V92.0593V92.2236V92.3875V92.551V92.7142V92.8771V93.0396V93.2018V93.3637V93.5253V93.6865V93.8475V94.0081V94.1684V94.3285V94.4882V94.6477V94.8069V94.9659V95.1245V95.283V95.4411V95.5991V95.7567V95.9142V96.0714V96.2284V96.3852V96.5418V96.6982V96.8543V97.0103V97.1661V97.3217V97.4771V97.6324V97.7875V97.9424V98.0972V98.2518V98.4063V98.5607V98.7149V98.869V99.023V99.1769V99.3306V99.4843V99.6379V99.7913V99.9447V100.098V100.251V100.404V100.558V100.711V100.864V101.017V101.169V101.322V101.475V101.628V101.781V101.934V102.086V102.239V102.392V102.545V102.698V102.851V103.004V103.156V103.309V103.462V103.616V103.769V103.922V104.075V104.228V104.382V104.535V104.689V104.843V104.996V105.15V105.304V105.459V105.613V105.767V105.922V106.076V106.231V106.386V106.541V106.697V106.852V107.008V107.164V107.32V107.476V107.633V107.789V107.946V108.103V108.261V108.418V108.576V108.734V108.892V109.051V109.209V109.369V109.528V109.687V109.847V110.007V110.168V110.329V110.49V110.651V110.813V110.975V111.137V111.3V111.463V111.626V111.79V111.954V112.118V112.283V112.448V112.614V112.78V112.946V113.113V113.28V113.447V113.615V113.784V113.952V114.122V114.291V114.461V114.632V114.803V114.974V115.146V115.319V115.491V115.665V115.839V116.013V116.188V116.363V116.539V116.715V116.892V117.069V117.247V117.426V117.605V117.784V117.965V118.145V118.327V118.508V118.691V118.874V119.057V119.242V119.426V119.612V119.798V119.984V120.172V120.359V120.548V120.737V120.927V121.117V121.308V121.5V121.693V121.886V122.08V122.274V122.469V122.665V122.862V123.059V123.257V123.456V123.655V123.856V124.057V124.258V124.461V124.664V124.868V125.073V125.278V125.484V125.692V125.899V126.108V126.317V126.528V126.739V126.951V127.163V127.377V127.591V127.807V128.023V128.24V128.458V128.676V128.896V129.116V129.337V129.56V129.783V130.007V130.232V130.457V130.684V130.912V131.14V131.37V131.6V131.832V132.064V132.297V132.532V132.767V133.003V133.24V133.478V133.718V133.958V134.199V134.441V134.684V134.928V135.174V135.42V135.667V135.916V136.165V136.415V136.667V136.92V137.173V137.428V137.684V137.941V138.199V138.458V138.718V138.979V139.242V139.505V139.77V140.036V140.303V140.571V140.84V141.11V141.382V141.655V141.929V142.204V142.48V142.757V143.036V143.316V143.597V143.879V144.163V144.448V144.734V145.021V145.309V145.599V145.89V146.182V146.476V146.77V147.066V147.364V147.662V147.962V148.263V148.566V148.87V149.175V149.481V149.789V150.098V150.409V150.721V151.034V151.348V151.664V151.981V152.3V152.62V152.941V153.264V153.588V153.914V154.241V154.569V154.899V155.231V155.563V155.897V156.233V156.57V156.908V157.248V157.59V157.933V158.277V158.623V158.97V159.319V159.669V160.021V160.375V160.729V161.086V161.444V161.803V162.164V162.527V162.891V163.257V163.624V163.993V164.363V164.735V165.108V165.484V165.86V166.137L0.5 146.335Z" stroke="#CADCF2"/>
</svg>
