<svg width="130" height="50" viewBox="0 0 130 50" fill="none" xmlns="http://www.w3.org/2000/svg">
<path fill-rule="evenodd" clip-rule="evenodd" d="M0 6.54486L11.3361 0C17.8811 3.77868 24.426 7.55747 30.9709 11.3361V34.0085L19.6348 40.5533V17.881C13.0899 14.1023 6.54495 10.3236 0 6.54486Z" fill="#004494"/>
<path fill-rule="evenodd" clip-rule="evenodd" d="M11.3361 14.2383C4.79116 18.0171 6.54496 17.0046 0 20.7832V43.4555L11.3361 50.0004C11.3361 29.0388 11.3361 30.8297 11.3361 14.2383Z" fill="#2CA72A"/>
<path fill-rule="evenodd" clip-rule="evenodd" d="M43.0065 22.6862V15.8633H54.2916V22.6862H43.0065ZM43.0065 33.9713V27.2131H56.5553L58.7865 24.9497V13.6321L56.5553 11.3362H38.4795V33.9713H43.0065ZM84.2995 38.4983V29.4442H82.0036V11.3362H77.5088V29.4442H66.2236V11.3362H61.6966V33.9713H79.7724V38.4983H84.2995ZM91.4132 33.9713L102.698 18.8706V33.9713H107.193V11.3362H102.698L91.4132 26.4046V11.3362H86.8861V33.9713H91.4132ZM121.906 33.9713V15.8633H129.763V11.3362H109.456V15.8633H117.379V33.9713H121.906Z" fill="white"/>
</svg>
