<svg width="24" height="24" viewBox="0 0 24 24" fill="none" xmlns="http://www.w3.org/2000/svg">
<path fill-rule="evenodd" clip-rule="evenodd" d="M23.9999 12C23.9999 18.627 18.6269 24 11.9999 24C5.37294 24 -6.10352e-05 18.627 -6.10352e-05 12C-6.10352e-05 5.373 5.37294 0 11.9999 0C18.6269 0 23.9999 5.373 23.9999 12ZM12.4299 8.859C11.2629 9.344 8.92994 10.349 5.43194 11.873C4.86394 12.099 4.56594 12.32 4.53894 12.536C4.49294 12.902 4.95094 13.046 5.57294 13.241C5.65794 13.268 5.74594 13.295 5.83594 13.325C6.44894 13.524 7.27294 13.757 7.70094 13.766C8.08994 13.774 8.52394 13.614 9.00294 13.286C12.2709 11.079 13.9579 9.964 14.0639 9.94C14.1389 9.923 14.2429 9.901 14.3129 9.964C14.3829 10.026 14.3759 10.144 14.3689 10.176C14.3229 10.369 12.5289 12.038 11.5989 12.902C11.3089 13.171 11.1039 13.362 11.0619 13.406C10.9679 13.503 10.8719 13.596 10.7799 13.685C10.2099 14.233 9.78394 14.645 10.8039 15.317C11.2939 15.64 11.6859 15.907 12.0769 16.173C12.5039 16.464 12.9299 16.754 13.4819 17.116C13.6219 17.208 13.7559 17.303 13.8869 17.396C14.3839 17.751 14.8309 18.069 15.3829 18.019C15.7029 17.989 16.0349 17.688 16.2029 16.789C16.5999 14.663 17.3819 10.059 17.5629 8.161C17.574 8.00341 17.5672 7.84509 17.5429 7.689C17.5284 7.56293 17.467 7.44693 17.3709 7.364C17.2279 7.247 17.0059 7.222 16.9059 7.224C16.4549 7.232 15.7629 7.473 12.4299 8.859Z" fill="#B8B4B4"/>
</svg>
