<svg width="24" height="24" viewBox="0 0 24 24" fill="none" xmlns="http://www.w3.org/2000/svg">
<path d="M15.6834 0H8.31643C1.59364 0 -6.10352e-05 1.5937 -6.10352e-05 8.31649V15.6835C-6.10352e-05 22.4063 1.59364 24 8.31643 24H15.6834C22.4062 24 23.9999 22.4063 23.9999 15.6835V8.31649C23.9999 1.5937 22.3905 0 15.6834 0ZM19.3748 17.1205H17.6326C16.9727 17.1205 16.7694 16.597 15.5822 15.394C14.551 14.3943 14.0942 14.2616 13.84 14.2616C13.4808 14.2616 13.3788 14.3628 13.3788 14.8555V16.4297C13.3788 16.852 13.246 17.1055 12.1286 17.1055C10.2806 17.1055 8.23018 15.988 6.79248 13.9061C4.62429 10.8552 4.03106 8.56998 4.03106 8.0975C4.03106 7.84326 4.13231 7.60551 4.62054 7.60551H6.36649C6.80823 7.60551 6.97622 7.80876 7.14797 8.28124C8.01119 10.7734 9.44889 12.9566 10.0421 12.9566C10.2611 12.9566 10.3624 12.8553 10.3624 12.2966V9.7227C10.2956 8.53548 9.67089 8.43349 9.67089 8.012C9.67089 7.80876 9.83888 7.60551 10.1081 7.60551H12.8538C13.225 7.60551 13.3615 7.80876 13.3615 8.24599V11.7184C13.3615 12.0934 13.5295 12.2261 13.6308 12.2261C13.8498 12.2261 14.0373 12.0934 14.443 11.6869C15.6969 10.2807 16.5954 8.1125 16.5954 8.1125C16.7124 7.85825 16.9157 7.62051 17.3574 7.62051H19.1033C19.6268 7.62051 19.7438 7.88975 19.6268 8.26474C19.4078 9.28021 17.2711 12.2959 17.2711 12.2959C17.0874 12.6004 17.0169 12.7331 17.2711 13.0728C17.4586 13.3271 18.0684 13.8543 18.4741 14.3268C19.2203 15.1743 19.7941 15.8853 19.9471 16.3772C20.1188 16.8655 19.8653 17.1197 19.3726 17.1197L19.3748 17.1205Z" fill="#B8B4B4"/>
</svg>
