<svg width="24" height="24" viewBox="0 0 24 24" fill="none" xmlns="http://www.w3.org/2000/svg">
<path fill-rule="evenodd" clip-rule="evenodd" d="M17.4988 14.382C17.1993 14.233 15.7313 13.515 15.458 13.415C15.1847 13.316 14.9857 13.267 14.7858 13.565C14.5868 13.861 14.0151 14.531 13.8413 14.729C13.6664 14.928 13.4926 14.952 13.1942 14.804C12.8957 14.654 11.9331 14.341 10.7927 13.329C9.90542 12.541 9.30555 11.568 9.13172 11.27C8.95789 10.973 9.11263 10.812 9.26235 10.664C9.39699 10.531 9.56077 10.317 9.71049 10.144C9.86021 9.97002 9.90944 9.84602 10.0089 9.64703C10.1094 9.44903 10.0592 9.27603 9.9838 9.12703C9.90944 8.97803 9.31259 7.51503 9.06339 6.92003C8.82123 6.34103 8.57506 6.42003 8.39218 6.41003C8.21734 6.40203 8.01839 6.40003 7.81944 6.40003C7.62048 6.40003 7.29694 6.47403 7.02363 6.77203C6.74931 7.06903 5.97862 7.78803 5.97862 9.25103C5.97862 10.713 7.04774 12.126 7.19746 12.325C7.34718 12.523 9.30254 15.525 12.2979 16.812C13.0113 17.118 13.567 17.301 14 17.437C14.7155 17.664 15.3666 17.632 15.881 17.555C16.4538 17.47 17.6475 16.836 17.8967 16.142C18.1449 15.448 18.1449 14.853 18.0705 14.729C17.9962 14.605 17.7972 14.531 17.4978 14.382H17.4988ZM12.0507 21.785H12.0467C10.2676 21.7853 8.52117 21.3094 6.99047 20.407L6.62874 20.193L2.86873 21.175L3.87254 17.527L3.63641 17.153C2.64179 15.5774 2.11542 13.7538 2.11814 11.893C2.12015 6.44303 6.57548 2.00904 12.0547 2.00904C14.7074 2.00904 17.2014 3.03904 19.0763 4.90703C20.0011 5.82361 20.7341 6.9136 21.2329 8.11392C21.7317 9.31425 21.9864 10.6011 21.9822 11.9C21.9802 17.35 17.5249 21.785 12.0507 21.785ZM20.5032 3.48804C19.3961 2.37896 18.0788 1.49958 16.6277 0.90084C15.1766 0.302104 13.6205 -0.00407624 12.0497 4.09775e-05C5.46416 4.09775e-05 0.102491 5.33503 0.100481 11.892C0.0974295 13.9788 0.647474 16.0294 1.69512 17.837L0 24L6.33433 22.346C8.08659 23.2961 10.0502 23.794 12.0457 23.794H12.0507C18.6362 23.794 23.9979 18.459 23.9999 11.901C24.0048 10.3383 23.6982 8.79013 23.098 7.34606C22.4978 5.902 21.6159 4.5907 20.5032 3.48804Z" fill="#B8B4B4"/>
</svg>
